<svg width="55" height="43" viewBox="0 0 55 43" fill="none" xmlns="http://www.w3.org/2000/svg">
<path d="M49.128 9.625C49.128 8.39837 48.5486 7.22199 47.5171 6.35463C46.4857 5.48728 45.0867 5 43.628 5H24.158C23.3645 4.99972 22.5803 5.14383 21.8592 5.42245C21.1382 5.70108 20.4974 6.1076 19.9808 6.61413L6.66254 19.6844C6.23501 20.1036 6 20.6376 6 21.1898C6 21.7421 6.23501 22.2761 6.66254 22.6953L19.9808 35.7609C20.4974 36.2674 21.1382 36.6739 21.8592 36.9525C22.5803 37.2312 23.3645 37.3753 24.158 37.375H43.628C45.0867 37.375 46.4857 36.8877 47.5171 36.0204C48.5486 35.153 49.128 33.9766 49.128 32.75V9.625ZM22.0295 16.2249C21.9017 16.1175 21.8002 15.99 21.731 15.8497C21.6617 15.7094 21.626 15.559 21.6259 15.4071C21.6258 15.2551 21.6612 15.1047 21.7302 14.9643C21.7993 14.8239 21.9005 14.6963 22.0282 14.5888C22.1558 14.4813 22.3074 14.396 22.4743 14.3377C22.6411 14.2795 22.82 14.2495 23.0007 14.2494C23.1814 14.2492 23.3603 14.2791 23.5272 14.3371C23.6942 14.3951 23.8459 14.4803 23.9738 14.5876L29.878 19.5526L35.7795 14.5876C35.9074 14.4803 36.0591 14.3951 36.2261 14.3371C36.393 14.2791 36.572 14.2492 36.7526 14.2494C36.9333 14.2495 37.1122 14.2795 37.279 14.3377C37.4459 14.396 37.5975 14.4813 37.7252 14.5888C37.8528 14.6963 37.9541 14.8239 38.0231 14.9643C38.0921 15.1047 38.1276 15.2551 38.1274 15.4071C38.1273 15.559 38.0916 15.7094 38.0223 15.8497C37.9531 15.99 37.8516 16.1175 37.7238 16.2249L31.8223 21.1875L37.7238 26.1501C37.982 26.3669 38.1272 26.6611 38.1274 26.9679C38.1277 27.2748 37.983 27.5691 37.7252 27.7862C37.4673 28.0033 37.1175 28.1254 36.7526 28.1256C36.3878 28.1259 36.0377 28.0042 35.7795 27.7874L29.878 22.8224L23.9738 27.7874C23.8459 27.8947 23.6942 27.9799 23.5272 28.0379C23.3603 28.0959 23.1814 28.1258 23.0007 28.1256C22.82 28.1255 22.6411 28.0955 22.4743 28.0373C22.3074 27.979 22.1558 27.8937 22.0282 27.7862C21.9005 27.6787 21.7993 27.5511 21.7302 27.4107C21.6612 27.2703 21.6258 27.1199 21.6259 26.9679C21.6262 26.6611 21.7713 26.3669 22.0295 26.1501L27.9338 21.1875L22.0295 16.2249Z" fill="black"/>
</svg>
