<svg width="48" height="48" viewBox="0 0 48 48" fill="none" xmlns="http://www.w3.org/2000/svg">
<rect width="48" height="48" rx="5" fill="#C5C5C5"/>
<path d="M14 27C13.2044 27 12.4413 26.6839 11.8787 26.1213C11.3161 25.5587 11 24.7956 11 24C11 23.2044 11.3161 22.4413 11.8787 21.8787C12.4413 21.3161 13.2044 21 14 21C14.7956 21 15.5587 21.3161 16.1213 21.8787C16.6839 22.4413 17 23.2044 17 24C17 24.7956 16.6839 25.5587 16.1213 26.1213C15.5587 26.6839 14.7956 27 14 27ZM24 27C23.2044 27 22.4413 26.6839 21.8787 26.1213C21.3161 25.5587 21 24.7956 21 24C21 23.2044 21.3161 22.4413 21.8787 21.8787C22.4413 21.3161 23.2044 21 24 21C24.7956 21 25.5587 21.3161 26.1213 21.8787C26.6839 22.4413 27 23.2044 27 24C27 24.7956 26.6839 25.5587 26.1213 26.1213C25.5587 26.6839 24.7956 27 24 27ZM34 27C33.2044 27 32.4413 26.6839 31.8787 26.1213C31.3161 25.5587 31 24.7956 31 24C31 23.2044 31.3161 22.4413 31.8787 21.8787C32.4413 21.3161 33.2044 21 34 21C34.7956 21 35.5587 21.3161 36.1213 21.8787C36.6839 22.4413 37 23.2044 37 24C37 24.7956 36.6839 25.5587 36.1213 26.1213C35.5587 26.6839 34.7956 27 34 27Z" fill="black"/>
</svg>
